<?xml version="1.0" encoding="UTF-8" standalone="no"?>
<!-- Created with Inkscape (http://www.inkscape.org/) -->

<svg
   xmlns:dc="http://purl.org/dc/elements/1.1/"
   xmlns:cc="http://creativecommons.org/ns#"
   xmlns:rdf="http://www.w3.org/1999/02/22-rdf-syntax-ns#"
   xmlns:svg="http://www.w3.org/2000/svg"
   xmlns="http://www.w3.org/2000/svg"
   xmlns:sodipodi="http://sodipodi.sourceforge.net/DTD/sodipodi-0.dtd"
   xmlns:inkscape="http://www.inkscape.org/namespaces/inkscape"
   width="25.400002mm"
   height="38.099998mm"
   viewBox="0 0 25.400002 38.099999"
   version="1.1"
   id="svg8"
   inkscape:export-filename="/home/terezievahalova/dev/roboprojekt_muj/interface/png/card.png"
   inkscape:export-xdpi="96.000008"
   inkscape:export-ydpi="96.000008"
   inkscape:version="0.92.3 (2405546, 2018-03-11)"
   sodipodi:docname="card.svg">
  <defs
     id="defs2" />
  <sodipodi:namedview
     id="base"
     pagecolor="#ffffff"
     bordercolor="#666666"
     borderopacity="1.0"
     inkscape:pageopacity="0.0"
     inkscape:pageshadow="2"
     inkscape:zoom="3.0510553"
     inkscape:cx="98.925282"
     inkscape:cy="80.331665"
     inkscape:document-units="mm"
     inkscape:current-layer="layer4"
     showgrid="true"
     inkscape:window-width="1920"
     inkscape:window-height="1016"
     inkscape:window-x="0"
     inkscape:window-y="27"
     inkscape:window-maximized="1"
     inkscape:measure-start="0,0"
     inkscape:measure-end="0,0">
    <inkscape:grid
       type="xygrid"
       id="grid1554"
       empspacing="4"
       originx="-52.916665"
       originy="-162.98333" />
  </sodipodi:namedview>
  <metadata
     id="metadata5">
    <rdf:RDF>
      <cc:Work
         rdf:about="">
        <dc:format>image/svg+xml</dc:format>
        <dc:type
           rdf:resource="http://purl.org/dc/dcmitype/StillImage" />
        <dc:title></dc:title>
      </cc:Work>
    </rdf:RDF>
  </metadata>
  <g
     inkscape:groupmode="layer"
     id="layer2"
     inkscape:label="Vrstva 2"
     style="display:inline" />
  <g
     inkscape:groupmode="layer"
     id="layer3"
     inkscape:label="Vrstva 3" />
  <g
     inkscape:groupmode="layer"
     id="layer4"
     inkscape:label="Vrstva 4">
    <g
       id="g6439">
      <rect
         y="1.0583299"
         x="1.0583349"
         height="35.983334"
         width="23.283333"
         id="rect6286"
         style="display:inline;opacity:1;fill:#696969;fill-opacity:1;stroke:#030000;stroke-width:2.5999999;stroke-linecap:round;stroke-linejoin:round;stroke-miterlimit:4;stroke-dasharray:none;stroke-dashoffset:21.1607151;stroke-opacity:1;paint-order:markers stroke fill" />
      <rect
         y="10.58333"
         x="3.1750016"
         height="24.341667"
         width="19.049999"
         id="rect6289"
         style="opacity:1;fill:#504f4f;fill-opacity:1;stroke:#a9a9a9;stroke-width:0.80000001;stroke-linecap:round;stroke-linejoin:round;stroke-miterlimit:4;stroke-dasharray:none;stroke-dashoffset:21.1607151;stroke-opacity:1;paint-order:markers stroke fill" />
      <rect
         y="2.1166635"
         x="3.1750016"
         height="6.3499999"
         width="19.049999"
         id="rect6291"
         style="opacity:1;fill:#504f4f;fill-opacity:1;stroke:#a9a9a9;stroke-width:0.80000001;stroke-linecap:round;stroke-linejoin:round;stroke-miterlimit:4;stroke-dasharray:none;stroke-dashoffset:21.1607151;stroke-opacity:1;paint-order:markers stroke fill" />
      <g
         id="text6299"
         style="font-style:normal;font-weight:normal;font-size:7.7707448px;line-height:1.25;font-family:sans-serif;letter-spacing:0px;word-spacing:0px;display:inline;fill:#90ee90;fill-opacity:1;stroke:none;stroke-width:0.19426861"
         transform="matrix(1.0539449,0,0,0.94881618,0.2608602,0.19780202)"
         aria-label="800">
        <path
           inkscape:connector-curvature="0"
           id="path6337"
           style="fill:#90ee90;stroke-width:0.19426861"
           d="m 6.8546805,5.6078944 q -0.5463805,0 -0.8613081,0.2921618 -0.3111333,0.2921618 -0.3111333,0.8043935 0,0.5122317 0.3111333,0.8043935 Q 6.3083,7.801005 6.8546805,7.801005 q 0.5463805,0 0.8613082,-0.2921618 0.3149276,-0.2959561 0.3149276,-0.8043935 0,-0.5122317 -0.3149276,-0.8043935 Q 7.4048553,5.6078944 6.8546805,5.6078944 Z M 6.0882301,5.2815838 Q 5.5949699,5.1601659 5.3179854,4.8224724 5.0447951,4.4847789 5.0447951,3.9991074 q 0,-0.6791813 0.4818773,-1.0737895 0.4856715,-0.3946081 1.3280081,-0.3946081 0.8461309,0 1.3280082,0.3946081 0.4818772,0.3946082 0.4818772,1.0737895 0,0.4856715 -0.2769845,0.823365 -0.2731903,0.3376935 -0.7626561,0.4591114 0.5539691,0.1290065 0.8613081,0.5046431 0.3111333,0.3756366 0.3111333,0.9182228 0,0.823365 -0.5046431,1.2635049 -0.5008488,0.4401398 -1.4380431,0.4401398 -0.9371943,0 -1.4418374,-0.4401398 -0.5008488,-0.4401399 -0.5008488,-1.2635049 0,-0.5425862 0.3111334,-0.9182228 Q 5.534261,5.4105903 6.0882301,5.2815838 Z M 5.8074512,4.0711993 q 0,0.4401398 0.2731903,0.6867699 0.2769846,0.2466301 0.774039,0.2466301 0.4932602,0 0.7702448,-0.2466301 0.2807788,-0.2466301 0.2807788,-0.6867699 0,-0.4401399 -0.2807788,-0.68677 -0.2769846,-0.2466301 -0.7702448,-0.2466301 -0.4970544,0 -0.774039,0.2466301 -0.2731903,0.2466301 -0.2731903,0.68677 z" />
        <path
           inkscape:connector-curvature="0"
           id="path6339"
           style="fill:#90ee90;stroke-width:0.19426861"
           d="m 11.802459,3.1377992 q -0.591912,0 -0.891662,0.5843236 -0.295956,0.5805293 -0.295956,1.7491765 0,1.1648528 0.295956,1.7491764 0.29975,0.5805293 0.891662,0.5805293 0.595707,0 0.891663,-0.5805293 0.29975,-0.5843236 0.29975,-1.7491764 0,-1.1686472 -0.29975,-1.7491765 -0.295956,-0.5843236 -0.891663,-0.5843236 z m 0,-0.6070894 q 0.952372,0 1.453221,0.7550675 0.504643,0.7512732 0.504643,2.185522 0,1.4304545 -0.504643,2.1855219 -0.500849,0.7512732 -1.453221,0.7512732 -0.952371,0 -1.457014,-0.7512732 -0.5008492,-0.7550674 -0.5008492,-2.1855219 0,-1.4342488 0.5008492,-2.185522 0.504643,-0.7550675 1.457014,-0.7550675 z" />
        <path
           inkscape:connector-curvature="0"
           id="path6341"
           style="fill:#90ee90;stroke-width:0.19426861"
           d="m 16.750238,3.1377992 q -0.591912,0 -0.891663,0.5843236 -0.295956,0.5805293 -0.295956,1.7491765 0,1.1648528 0.295956,1.7491764 0.299751,0.5805293 0.891663,0.5805293 0.595706,0 0.891663,-0.5805293 0.29975,-0.5843236 0.29975,-1.7491764 0,-1.1686472 -0.29975,-1.7491765 -0.295957,-0.5843236 -0.891663,-0.5843236 z m 0,-0.6070894 q 0.952371,0 1.45322,0.7550675 0.504643,0.7512732 0.504643,2.185522 0,1.4304545 -0.504643,2.1855219 -0.500849,0.7512732 -1.45322,0.7512732 -0.952372,0 -1.457015,-0.7512732 -0.500849,-0.7550674 -0.500849,-2.1855219 0,-1.4342488 0.500849,-2.185522 0.504643,-0.7550675 1.457015,-0.7550675 z" />
      </g>
      <text
         id="text6371"
         y="34.229935"
         x="3.7595332"
         style="font-style:normal;font-weight:normal;font-size:4.57692337px;line-height:1.25;font-family:sans-serif;letter-spacing:0px;word-spacing:0px;fill:#daa520;fill-opacity:1;stroke:none;stroke-width:0.11442307"
         xml:space="preserve"><tspan
           style="fill:#daa520;stroke-width:0.11442307"
           y="34.229935"
           x="3.7595332"
           id="tspan6369"
           sodipodi:role="line">MOVE 3</tspan></text>
      <path
         inkscape:connector-curvature="0"
         d="M 23.283335,21.166664 H 2.116668 L 12.700001,9.5249971 v 0 z m -6.35,8.466666 H 8.466669 V 17.991665 h 8.466666 z"
         style="opacity:1;fill:#3c3c3c;fill-opacity:1;stroke:#e72222;stroke-width:1.15499997;stroke-linecap:round;stroke-linejoin:round;stroke-miterlimit:4;stroke-dasharray:none;stroke-dashoffset:21.1607151;stroke-opacity:1;paint-order:markers stroke fill"
         id="rect6375" />
      <text
         id="text6383"
         y="23.435478"
         x="9.2343092"
         style="font-style:normal;font-weight:normal;font-size:10.58333302px;line-height:1.25;font-family:sans-serif;letter-spacing:0px;word-spacing:0px;fill:#daa520;fill-opacity:1;stroke:none;stroke-width:0.26458332"
         xml:space="preserve"><tspan
           style="fill:#daa520;fill-opacity:1;stroke-width:0.26458332"
           y="23.435478"
           x="9.2343092"
           id="tspan6381"
           sodipodi:role="line">3</tspan></text>
    </g>
  </g>
</svg>
